<svg width="80" height="80" viewBox="0 0 80 80" fill="none" xmlns="http://www.w3.org/2000/svg">
<circle cx="40" cy="40" r="40" fill="#FFD600"/>
<path d="M50.4708 25.3108H29.3785C28.1798 25.3108 27.0302 25.787 26.1826 26.6346C25.335 27.4822 24.8588 28.6318 24.8588 29.8306V50.9228C24.8588 52.1216 25.335 53.2712 26.1826 54.1188C27.0302 54.9664 28.1798 55.4426 29.3785 55.4426H50.4708C51.6695 55.4426 52.8192 54.9664 53.6668 54.1188C54.5144 53.2712 54.9906 52.1216 54.9906 50.9228V29.8306C54.9906 28.6318 54.5144 27.4822 53.6668 26.6346C52.8192 25.787 51.6695 25.3108 50.4708 25.3108ZM51.9774 50.9228C51.9774 51.3224 51.8187 51.7056 51.5361 51.9882C51.2536 52.2707 50.8704 52.4294 50.4708 52.4294H29.3785C28.979 52.4294 28.5958 52.2707 28.3132 51.9882C28.0307 51.7056 27.8719 51.3224 27.8719 50.9228V29.8306C27.8719 29.431 28.0307 29.0478 28.3132 28.7652C28.5958 28.4827 28.979 28.324 29.3785 28.324H50.4708C50.8704 28.324 51.2536 28.4827 51.5361 28.7652C51.8187 29.0478 51.9774 29.431 51.9774 29.8306V50.9228ZM47.4576 35.8569H44.4445V32.8437C44.4445 32.4442 44.2857 32.061 44.0032 31.7784C43.7206 31.4959 43.3374 31.3372 42.9379 31.3372H36.9115C36.5119 31.3372 36.1287 31.4959 35.8462 31.7784C35.5636 32.061 35.4049 32.4442 35.4049 32.8437V35.8569H32.3917C31.9921 35.8569 31.6089 36.0157 31.3264 36.2982C31.0439 36.5807 30.8851 36.9639 30.8851 37.3635V43.3899C30.8851 43.7895 31.0439 44.1727 31.3264 44.4552C31.6089 44.7377 31.9921 44.8965 32.3917 44.8965H35.4049V47.9097C35.4049 48.3092 35.5636 48.6924 35.8462 48.975C36.1287 49.2575 36.5119 49.4163 36.9115 49.4163H42.9379C43.3374 49.4163 43.7206 49.2575 44.0032 48.975C44.2857 48.6924 44.4445 48.3092 44.4445 47.9097V44.8965H47.4576C47.8572 44.8965 48.2404 44.7377 48.523 44.4552C48.8055 44.1727 48.9642 43.7895 48.9642 43.3899V37.3635C48.9642 36.9639 48.8055 36.5807 48.523 36.2982C48.2404 36.0157 47.8572 35.8569 47.4576 35.8569ZM45.951 41.8833H42.9379C42.5383 41.8833 42.1551 42.042 41.8725 42.3246C41.59 42.6071 41.4313 42.9903 41.4313 43.3899V46.4031H38.4181V43.3899C38.4181 42.9903 38.2594 42.6071 37.9768 42.3246C37.6943 42.042 37.3111 41.8833 36.9115 41.8833H33.8983V38.8701H36.9115C37.3111 38.8701 37.6943 38.7114 37.9768 38.4288C38.2594 38.1463 38.4181 37.7631 38.4181 37.3635V34.3503H41.4313V37.3635C41.4313 37.7631 41.59 38.1463 41.8725 38.4288C42.1551 38.7114 42.5383 38.8701 42.9379 38.8701H45.951V41.8833Z" fill="black"/>
</svg>
