<svg width="230" height="83" viewBox="0 0 230 83" fill="none" xmlns="http://www.w3.org/2000/svg">
<rect width="230" height="83" fill="black"/>
<path d="M97.5469 19.3136V43.4854H91.7197V19.3136H97.5469ZM104.818 19.3136V23.8126H84.6143V19.3136H104.818ZM107.292 19.3136H116.805C118.664 19.3136 120.28 19.5903 121.652 20.1436C123.025 20.697 124.082 21.516 124.823 22.6007C125.576 23.6853 125.952 25.0245 125.952 26.6183C125.952 28.0017 125.736 29.1583 125.305 30.088C124.873 31.0177 124.27 31.7869 123.495 32.3956C122.731 32.9933 121.84 33.4858 120.822 33.8731L118.913 34.9522H110.928L110.895 30.4532H116.805C117.546 30.4532 118.16 30.3204 118.647 30.0548C119.134 29.7892 119.5 29.4129 119.743 28.9259C119.998 28.4278 120.125 27.8357 120.125 27.1495C120.125 26.4522 119.998 25.8546 119.743 25.3565C119.489 24.8585 119.112 24.4767 118.614 24.211C118.127 23.9454 117.524 23.8126 116.805 23.8126H113.119V43.4854H107.292V19.3136ZM120.523 43.4854L115.178 32.794L121.354 32.7608L126.766 43.2364V43.4854H120.523ZM142.587 19.3136H148.414V35.1017C148.414 36.9832 148.021 38.5769 147.235 39.8829C146.45 41.1778 145.348 42.1573 143.932 42.8214C142.515 43.4854 140.849 43.8175 138.935 43.8175C137.042 43.8175 135.376 43.4854 133.938 42.8214C132.51 42.1573 131.392 41.1778 130.584 39.8829C129.787 38.5769 129.389 36.9832 129.389 35.1017V19.3136H135.232V35.1017C135.232 36.0977 135.376 36.9112 135.664 37.5421C135.952 38.1619 136.372 38.6157 136.926 38.9034C137.479 39.1912 138.149 39.3351 138.935 39.3351C139.731 39.3351 140.401 39.1912 140.943 38.9034C141.486 38.6157 141.895 38.1619 142.172 37.5421C142.449 36.9112 142.587 36.0977 142.587 35.1017V19.3136ZM165.829 35.3009H171.64C171.562 36.9832 171.108 38.4662 170.278 39.7501C169.448 41.0339 168.297 42.0356 166.825 42.755C165.364 43.4633 163.638 43.8175 161.646 43.8175C160.03 43.8175 158.585 43.5463 157.312 43.004C156.051 42.4617 154.977 41.6814 154.092 40.6632C153.217 39.6449 152.548 38.4109 152.083 36.961C151.629 35.5112 151.402 33.8787 151.402 32.0636V30.752C151.402 28.9369 151.64 27.3045 152.116 25.8546C152.603 24.3936 153.289 23.1541 154.175 22.1358C155.071 21.1065 156.145 20.3207 157.396 19.7784C158.646 19.2361 160.035 18.9649 161.562 18.9649C163.665 18.9649 165.442 19.3412 166.892 20.0938C168.341 20.8464 169.465 21.8813 170.262 23.1983C171.059 24.5043 171.529 25.9929 171.673 27.6642H165.862C165.84 26.7566 165.685 25.9985 165.397 25.3897C165.11 24.7699 164.656 24.3051 164.036 23.9952C163.416 23.6853 162.592 23.5304 161.562 23.5304C160.843 23.5304 160.218 23.6632 159.687 23.9288C159.155 24.1944 158.713 24.615 158.358 25.1905C158.004 25.766 157.739 26.5131 157.562 27.4317C157.396 28.3393 157.312 29.435 157.312 30.7188V32.0636C157.312 33.3474 157.39 34.4431 157.545 35.3507C157.7 36.2582 157.949 36.9998 158.292 37.5753C158.635 38.1508 159.078 38.5769 159.62 38.8536C160.174 39.1192 160.849 39.252 161.646 39.252C162.531 39.252 163.278 39.1137 163.887 38.837C164.495 38.5492 164.966 38.1176 165.298 37.5421C165.63 36.9555 165.807 36.2084 165.829 35.3009ZM180.223 19.3136V43.4854H174.396V19.3136H180.223ZM194.649 19.3136L185.286 31.5655L179.808 37.5587L178.745 32.213L182.248 26.9005L187.461 19.3136H194.649ZM187.76 43.4854L181.518 32.5948L186.05 29.2579L194.649 43.4854H187.76ZM208.595 37.0606C208.595 36.6843 208.539 36.3468 208.429 36.0479C208.318 35.738 208.113 35.4503 207.814 35.1847C207.516 34.919 207.084 34.6534 206.52 34.3878C205.966 34.1111 205.236 33.8233 204.328 33.5245C203.266 33.1703 202.242 32.7719 201.257 32.3292C200.272 31.8754 199.392 31.3497 198.617 30.752C197.842 30.1433 197.228 29.435 196.774 28.627C196.321 27.808 196.094 26.8562 196.094 25.7716C196.094 24.7312 196.326 23.796 196.791 22.9659C197.256 22.1248 197.903 21.4109 198.733 20.8243C199.575 20.2267 200.56 19.7729 201.688 19.463C202.817 19.142 204.051 18.9815 205.391 18.9815C207.161 18.9815 208.722 19.2914 210.072 19.9112C211.434 20.5199 212.496 21.3888 213.26 22.5177C214.035 23.6355 214.422 24.9581 214.422 26.4854H208.628C208.628 25.8767 208.501 25.3399 208.246 24.8751C208.003 24.4102 207.632 24.045 207.134 23.7794C206.636 23.5138 206.01 23.381 205.258 23.381C204.527 23.381 203.913 23.4916 203.415 23.713C202.917 23.9343 202.541 24.2332 202.286 24.6095C202.032 24.9747 201.904 25.3787 201.904 25.8214C201.904 26.1866 202.004 26.5186 202.203 26.8175C202.413 27.1052 202.707 27.3764 203.083 27.631C203.47 27.8855 203.935 28.129 204.478 28.3614C205.031 28.5938 205.651 28.8207 206.337 29.0421C207.621 29.4516 208.761 29.9109 209.757 30.42C210.764 30.9181 211.611 31.488 212.297 32.13C212.994 32.7608 213.52 33.4802 213.874 34.2882C214.239 35.0961 214.422 36.0092 214.422 37.0274C214.422 38.1121 214.212 39.075 213.791 39.9161C213.37 40.7573 212.767 41.4711 211.981 42.0577C211.196 42.6332 210.255 43.0704 209.159 43.3692C208.063 43.6681 206.84 43.8175 205.49 43.8175C204.251 43.8175 203.028 43.6625 201.821 43.3526C200.626 43.0317 199.541 42.5447 198.567 41.8917C197.593 41.2276 196.813 40.381 196.227 39.3517C195.651 38.3113 195.363 37.0772 195.363 35.6495H201.207C201.207 36.3578 201.301 36.9555 201.489 37.4425C201.677 37.9295 201.954 38.3224 202.319 38.6212C202.685 38.9089 203.133 39.1192 203.664 39.252C204.195 39.3738 204.804 39.4347 205.49 39.4347C206.232 39.4347 206.829 39.3295 207.283 39.1192C207.737 38.8979 208.069 38.6101 208.279 38.256C208.49 37.8907 208.595 37.4923 208.595 37.0606Z" fill="white"/>
<path d="M88.6012 47.9846V62.4854H85.1055V47.9846H88.6012ZM94.2382 54.02V56.709H87.6053V54.02H94.2382ZM94.8059 47.9846V50.6836H87.6053V47.9846H94.8059ZM108.53 54.9462V55.5338C108.53 56.6426 108.374 57.6386 108.062 58.5216C107.756 59.398 107.322 60.1483 106.757 60.7724C106.193 61.3899 105.526 61.8646 104.755 62.1966C103.985 62.522 103.135 62.6846 102.206 62.6846C101.27 62.6846 100.413 62.522 99.6362 62.1966C98.866 61.8646 98.1954 61.3899 97.6244 60.7724C97.06 60.1483 96.6218 59.398 96.3098 58.5216C96.0044 57.6386 95.8516 56.6426 95.8516 55.5338V54.9462C95.8516 53.8374 96.0044 52.8415 96.3098 51.9584C96.6218 51.0753 97.0567 50.3251 97.6145 49.7076C98.1788 49.0835 98.8461 48.6087 99.6163 48.2834C100.393 47.9514 101.25 47.7854 102.186 47.7854C103.115 47.7854 103.965 47.9514 104.735 48.2834C105.512 48.6087 106.183 49.0835 106.747 49.7076C107.312 50.3251 107.75 51.0753 108.062 51.9584C108.374 52.8415 108.53 53.8374 108.53 54.9462ZM104.984 55.5338V54.9263C104.984 54.2092 104.921 53.5785 104.795 53.034C104.676 52.4829 104.496 52.0215 104.257 51.6497C104.018 51.2778 103.723 50.999 103.371 50.8131C103.026 50.6205 102.631 50.5242 102.186 50.5242C101.721 50.5242 101.316 50.6205 100.971 50.8131C100.625 50.999 100.337 51.2778 100.104 51.6497C99.8719 52.0215 99.696 52.4829 99.5764 53.034C99.4636 53.5785 99.4071 54.2092 99.4071 54.9263V55.5338C99.4071 56.2442 99.4636 56.875 99.5764 57.4261C99.696 57.9705 99.8719 58.432 100.104 58.8104C100.343 59.1889 100.635 59.4744 100.981 59.6669C101.333 59.8595 101.741 59.9558 102.206 59.9558C102.651 59.9558 103.046 59.8595 103.391 59.6669C103.736 59.4744 104.025 59.1889 104.257 58.8104C104.496 58.432 104.676 57.9705 104.795 57.4261C104.921 56.875 104.984 56.2442 104.984 55.5338ZM110.343 47.9846H116.049C117.165 47.9846 118.134 48.1506 118.957 48.4826C119.781 48.8146 120.415 49.3059 120.86 49.9566C121.311 50.6072 121.537 51.4106 121.537 52.3667C121.537 53.1967 121.407 53.8905 121.148 54.4482C120.889 55.006 120.528 55.4674 120.063 55.8326C119.605 56.1911 119.07 56.4866 118.459 56.719L117.314 57.3663H112.524L112.504 54.6673H116.049C116.494 54.6673 116.863 54.5877 117.155 54.4283C117.447 54.269 117.666 54.0432 117.812 53.7511C117.965 53.4523 118.041 53.0971 118.041 52.6854C118.041 52.2671 117.965 51.9086 117.812 51.6098C117.659 51.311 117.434 51.082 117.135 50.9226C116.843 50.7633 116.481 50.6836 116.049 50.6836H113.838V62.4854H110.343V47.9846ZM118.28 62.4854L115.073 56.0716L118.778 56.0517L122.025 62.3361V62.4854H118.28ZM136.595 47.9846H140.091V57.456C140.091 58.5847 139.855 59.5408 139.384 60.3243C138.913 61.1011 138.252 61.6887 137.402 62.0871C136.552 62.4854 135.553 62.6846 134.404 62.6846C133.269 62.6846 132.27 62.4854 131.407 62.0871C130.55 61.6887 129.879 61.1011 129.395 60.3243C128.917 59.5408 128.678 58.5847 128.678 57.456V47.9846H132.183V57.456C132.183 58.0535 132.27 58.5415 132.442 58.92C132.615 59.2918 132.867 59.564 133.199 59.7367C133.531 59.9093 133.933 59.9956 134.404 59.9956C134.882 59.9956 135.284 59.9093 135.609 59.7367C135.935 59.564 136.18 59.2918 136.346 58.92C136.512 58.5415 136.595 58.0535 136.595 57.456V47.9846ZM145.788 47.9846V62.4854H142.292V47.9846H145.788ZM154.443 47.9846L148.826 55.3346L145.539 58.93L144.902 55.723L147.003 52.536L150.13 47.9846H154.443ZM150.309 62.4854L146.565 55.9521L149.284 53.9503L154.443 62.4854H150.309ZM155.339 47.9846H161.046C162.161 47.9846 163.13 48.1506 163.954 48.4826C164.777 48.8146 165.411 49.3059 165.856 49.9566C166.308 50.6072 166.533 51.4106 166.533 52.3667C166.533 53.1967 166.404 53.8905 166.145 54.4482C165.886 55.006 165.524 55.4674 165.059 55.8326C164.601 56.1911 164.067 56.4866 163.456 56.719L162.31 57.3663H157.52L157.5 54.6673H161.046C161.49 54.6673 161.859 54.5877 162.151 54.4283C162.443 54.269 162.662 54.0432 162.808 53.7511C162.961 53.4523 163.038 53.0971 163.038 52.6854C163.038 52.2671 162.961 51.9086 162.808 51.6098C162.656 51.311 162.43 51.082 162.131 50.9226C161.839 50.7633 161.477 50.6836 161.046 50.6836H158.835V62.4854H155.339V47.9846ZM163.277 62.4854L160.07 56.0716L163.775 56.0517L167.021 62.3361V62.4854H163.277ZM174.79 51.0322L171.254 62.4854H167.499L172.828 47.9846H175.208L174.79 51.0322ZM177.718 62.4854L174.172 51.0322L173.714 47.9846H176.124L181.482 62.4854H177.718ZM177.578 57.0775V59.7765H170.139V57.0775H177.578ZM186.263 47.9846V62.4854H182.777V47.9846H186.263ZM200.833 47.9846V62.4854H197.348L192.218 53.4623V62.4854H188.723V47.9846H192.218L197.348 57.0078V47.9846H200.833ZM213.024 59.7964V62.4854H205.295V59.7964H213.024ZM206.54 47.9846V62.4854H203.044V47.9846H206.54ZM212.028 53.7411V56.3405H205.295V53.7411H212.028ZM213.053 47.9846V50.6836H205.295V47.9846H213.053Z" fill="white"/>
<path fill-rule="evenodd" clip-rule="evenodd" d="M44.732 57.9848L44.7105 57.9549L44.6858 57.921L44.732 57.9848ZM35.5477 52.496L35.5492 52.4967C38.4176 53.6688 41.9032 55.1185 44.0929 57.9208H27.1369V47.9117H30.8814C31.0941 49.3704 32.0086 50.9886 34.2082 51.9389C34.6261 52.1194 35.0783 52.3042 35.5444 52.4947L35.5444 52.4947L35.5446 52.4948L35.5477 52.496ZM62.8632 57.9208H45.9072C48.097 55.1184 51.5825 53.6689 54.4508 52.4967L54.4533 52.4957L54.4554 52.4948L54.4557 52.4947L54.4558 52.4946L54.4559 52.4946C54.9219 52.3041 55.3741 52.1193 55.7919 51.9389C57.9915 50.9886 58.906 49.3704 59.1187 47.9117H62.8632V57.9208ZM60.6 54.675C60.6 55.2135 60.1635 55.65 59.625 55.65C59.0866 55.65 58.65 55.2135 58.65 54.675C58.65 54.1365 59.0866 53.7 59.625 53.7C60.1635 53.7 60.6 54.1365 60.6 54.675ZM30.375 55.65C30.9135 55.65 31.35 55.2135 31.35 54.675C31.35 54.1365 30.9135 53.7 30.375 53.7C29.8366 53.7 29.4 54.1365 29.4 54.675C29.4 55.2135 29.8366 55.65 30.375 55.65Z" fill="#FFD500"/>
<path fill-rule="evenodd" clip-rule="evenodd" d="M27.1368 47.4568V21.5251C29.1761 22.2827 30.9686 23.7603 32.339 26.489C33.931 29.659 34.9624 34.5408 35.0395 41.9599C34.2604 42.0733 33.5962 42.3274 33.0395 42.6988C32.2662 43.2148 31.7655 43.9135 31.444 44.6247C30.9936 45.6213 30.8744 46.6934 30.8425 47.4568H27.1368ZM57.661 26.489C59.0314 23.7603 60.8238 22.2827 62.8631 21.5251V47.4568H59.1575C59.1255 46.6934 59.0064 45.6213 58.5559 44.6247C58.2345 43.9135 57.7338 43.2148 56.9604 42.6988C56.4038 42.3274 55.7395 42.0733 54.9605 41.9599C55.0375 34.5408 56.069 29.659 57.661 26.489Z" fill="#FFD500"/>
<path fill-rule="evenodd" clip-rule="evenodd" d="M45.3027 15.1283C45.1933 14.9602 45.0911 14.8175 45.0016 14.7C44.9106 14.8201 44.8063 14.9662 44.6948 15.1381C44.3167 15.7205 43.8551 16.5979 43.536 17.7628C43.23 18.8799 43.2188 20.4042 43.3638 22.2334C43.4743 23.6265 43.6715 25.1603 43.8802 26.7839C43.9445 27.284 44.0099 27.7926 44.0742 28.3082C44.6161 32.6555 45.0791 37.4827 44.0201 41.5261C43.0599 45.1921 41.896 47.7096 40.8736 49.921C40.6519 50.4007 40.4367 50.866 40.2318 51.3255C39.8865 52.0996 39.5683 52.8606 39.2922 53.6523C41.293 54.667 43.2726 55.9914 44.6816 57.9153L44.719 57.9668C44.8155 58.1002 44.9092 58.2365 45 58.3757C45.0908 58.2365 45.1846 58.1002 45.281 57.9668L45.3185 57.9153C46.7274 55.9914 48.707 54.667 50.7078 53.6523C50.4317 52.8606 50.1135 52.0997 49.7682 51.3255C49.5633 50.8661 49.3482 50.4009 49.1265 49.9212C48.104 47.7098 46.9401 45.1921 45.9799 41.5261C44.9209 37.4827 45.3838 32.6555 45.9258 28.3082C45.9901 27.7928 46.0554 27.2844 46.1197 26.7846C46.3284 25.161 46.5257 23.6265 46.6362 22.2334C46.7811 20.4042 46.77 18.8799 46.464 17.7628C46.141 16.5836 45.6792 15.7064 45.3027 15.1283ZM50.8562 54.0939C51.2284 55.2454 51.5084 56.4763 51.6518 57.9153H45.8962C47.2195 56.23 49.0126 55.0344 50.8562 54.0939ZM51.6924 58.3757C51.736 58.9417 51.759 59.5399 51.759 60.1774C51.759 61.5198 51.048 63.1531 49.7795 64.8482C48.6279 66.3871 47.0475 67.9355 45.2302 69.3031L45.2302 58.3757L45.5553 58.3757H51.6924ZM44.7698 58.3757L44.4447 58.3757H38.3075C38.264 58.9417 38.241 59.5399 38.241 60.1774C38.241 61.5198 38.952 63.1531 40.2205 64.8482C41.3721 66.3872 42.9525 67.9355 44.7698 69.3031L44.7698 58.3757ZM38.3482 57.9153H44.1038C42.7805 56.23 40.9874 55.0344 39.1438 54.0939C38.7716 55.2454 38.4916 56.4763 38.3482 57.9153Z" fill="#FFD500"/>
<path fill-rule="evenodd" clip-rule="evenodd" d="M42.8265 21.525H31.2077C30.728 21.525 30.3196 21.8738 30.2446 22.3476L30.1754 22.7853C31.1491 23.6463 32.0232 24.7839 32.7703 26.2716C34.4117 29.5399 35.4471 34.5137 35.5225 41.978H43.3935C43.4457 41.7895 43.4973 41.5977 43.5484 41.4027C44.5803 37.4628 44.1336 32.726 43.5903 28.3686C43.5262 27.854 43.4609 27.3463 43.3966 26.8461L43.3956 26.8382C43.1876 25.2205 42.9892 23.6769 42.8778 22.2719C42.8577 22.0183 42.8404 21.7692 42.8265 21.525ZM46.6064 41.978H54.4776C54.553 34.5137 55.5884 29.5399 57.2298 26.2716C57.9768 24.784 58.8508 23.6466 59.8244 22.7855L59.7551 22.3476C59.6801 21.8738 59.2717 21.525 58.7921 21.525H47.1734C47.1594 21.7692 47.1422 22.0183 47.1221 22.2719C47.0107 23.6769 46.8122 25.2212 46.6042 26.8389L46.6042 26.8389L46.6032 26.8468C46.5389 27.3468 46.4736 27.8543 46.4095 28.3686C45.8663 32.726 45.4196 37.4628 46.4515 41.4027C46.5025 41.5977 46.5542 41.7895 46.6064 41.978Z" fill="#005BBB"/>
<path d="M29.4 58.575H35.25V67.35C35.25 68.427 34.377 69.3 33.3 69.3H31.35C30.2731 69.3 29.4 68.427 29.4 67.35V58.575Z" fill="#005BBB"/>
<path d="M54.75 58.575H60.6V67.35C60.6 68.427 59.727 69.3 58.65 69.3H56.7C55.623 69.3 54.75 68.427 54.75 67.35V58.575Z" fill="#005BBB"/>
<rect width="3.72667" height="5.68974" rx="0.975" transform="matrix(4.44913e-08 1 1 -4.29451e-08 65.6353 36.15)" fill="#FFD500"/>
<path d="M66.2043 38.945L64.7818 41.74H63.3594" stroke="#FFD500" stroke-width="0.559"/>
<rect x="24.3648" y="36.15" width="3.72667" height="5.68974" rx="0.975" transform="rotate(90 24.3648 36.15)" fill="#FFD500"/>
<path d="M23.7958 38.945L25.2183 41.74H26.6407" stroke="#FFD500" stroke-width="0.559"/>
</svg>
