<svg width="80" height="80" viewBox="0 0 80 80" fill="none" xmlns="http://www.w3.org/2000/svg">
<circle cx="40" cy="40" r="40" fill="#FFD600"/>
<path d="M40.226 40.5574C41.0299 39.8616 41.6747 39.0009 42.1166 38.0339C42.5585 37.0669 42.7872 36.0161 42.7872 34.9529C42.7872 32.955 41.9936 31.039 40.5809 29.6263C39.1682 28.2136 37.2521 27.4199 35.2543 27.4199C33.2564 27.4199 31.3404 28.2136 29.9277 29.6263C28.515 31.039 27.7213 32.955 27.7213 34.9529C27.7213 36.0161 27.95 37.0669 28.3919 38.0339C28.8339 39.0009 29.4786 39.8616 30.2825 40.5574C28.1735 41.5124 26.3842 43.0546 25.1284 44.9997C23.8727 46.9447 23.2038 49.2102 23.2015 51.5254C23.2015 51.925 23.3603 52.3082 23.6428 52.5907C23.9253 52.8732 24.3086 53.032 24.7081 53.032C25.1077 53.032 25.4909 52.8732 25.7735 52.5907C26.056 52.3082 26.2147 51.925 26.2147 51.5254C26.2147 49.1279 27.1671 46.8287 28.8623 45.1335C30.5576 43.4382 32.8568 42.4858 35.2543 42.4858C37.6517 42.4858 39.951 43.4382 41.6462 45.1335C43.3414 46.8287 44.2938 49.1279 44.2938 51.5254C44.2938 51.925 44.4525 52.3082 44.7351 52.5907C45.0176 52.8732 45.4008 53.032 45.8004 53.032C46.2 53.032 46.5832 52.8732 46.8657 52.5907C47.1483 52.3082 47.307 51.925 47.307 51.5254C47.3048 49.2102 46.6358 46.9447 45.3801 44.9997C44.1244 43.0546 42.335 41.5124 40.226 40.5574ZM35.2543 39.4727C34.3603 39.4727 33.4865 39.2076 32.7432 38.7109C31.9999 38.2143 31.4206 37.5084 31.0785 36.6825C30.7365 35.8566 30.6469 34.9479 30.8213 34.0711C30.9957 33.1944 31.4262 32.389 32.0583 31.7569C32.6904 31.1248 33.4958 30.6943 34.3725 30.52C35.2493 30.3456 36.158 30.4351 36.9839 30.7772C37.8098 31.1192 38.5157 31.6986 39.0123 32.4418C39.509 33.1851 39.774 34.059 39.774 34.9529C39.774 36.1516 39.2979 37.3012 38.4502 38.1488C37.6026 38.9965 36.453 39.4727 35.2543 39.4727ZM49.9285 39.9548C50.8926 38.869 51.5225 37.5277 51.7421 36.0924C51.9618 34.657 51.7619 33.1888 51.1665 31.8644C50.5712 30.54 49.6057 29.4158 48.3864 28.6273C47.1671 27.8388 45.7459 27.4195 44.2938 27.4199C43.8942 27.4199 43.511 27.5787 43.2285 27.8612C42.946 28.1437 42.7872 28.5269 42.7872 28.9265C42.7872 29.3261 42.946 29.7093 43.2285 29.9918C43.511 30.2744 43.8942 30.4331 44.2938 30.4331C45.4925 30.4331 46.6422 30.9093 47.4898 31.7569C48.3374 32.6045 48.8136 33.7542 48.8136 34.9529C48.8115 35.7442 48.6016 36.5211 48.205 37.2059C47.8084 37.8906 47.239 38.4593 46.5537 38.8549C46.3303 38.9838 46.1438 39.1678 46.0119 39.3894C45.88 39.611 45.8072 39.8627 45.8004 40.1205C45.7941 40.3763 45.853 40.6294 45.9717 40.8561C46.0903 41.0828 46.2647 41.2755 46.4784 41.4162L47.0659 41.8079L47.2618 41.9133C49.0778 42.7747 50.6099 44.137 51.6776 45.84C52.7453 47.5429 53.3041 49.5155 53.2882 51.5254C53.2882 51.925 53.4469 52.3082 53.7294 52.5907C54.012 52.8732 54.3952 53.032 54.7948 53.032C55.1943 53.032 55.5775 52.8732 55.8601 52.5907C56.1426 52.3082 56.3013 51.925 56.3013 51.5254C56.3137 49.2134 55.7346 46.9367 54.6192 44.9115C53.5038 42.8864 51.8891 41.1801 49.9285 39.9548Z" fill="black"/>
</svg>
