<svg width="49" height="33" viewBox="0 0 49 33" fill="none" xmlns="http://www.w3.org/2000/svg">
<path d="M10.9755 0.000183802C16.8024 -0.0340183 22 4.70931 22 10.6791C22 16.5741 17.0617 21.3579 10.9755 21.3579C10.6635 21.3579 10.3515 21.3353 10.0456 21.3122C12.7767 24.5336 16.9144 26.5916 21.5346 26.5916V33C9.68615 33 0.0511761 23.6272 0.0511761 12.1045C-0.579044 5.59341 4.70039 0.039969 10.9747 0.00026303L10.9755 0.000183802Z" fill="black"/>
<path d="M48.5344 26.5915V33C36.686 33 27.0511 23.6271 27.0511 12.1044C26.4213 5.59334 31.7069 0.0347993 37.9756 0.000183786C43.8027 -0.0340184 49 4.70973 49 10.6791C49 16.5741 44.0618 21.358 37.9756 21.358C37.6636 21.358 37.3515 21.3353 37.0457 21.3122C39.7821 24.5332 43.9199 26.5915 48.5344 26.5915Z" fill="black"/>
</svg>
