<svg width="80" height="80" viewBox="0 0 80 80" fill="none" xmlns="http://www.w3.org/2000/svg">
<circle cx="40" cy="40" r="40" fill="#FFD600"/>
<path d="M37.5142 36.4595H36.0076V34.9529C36.0076 34.5533 35.8488 34.1701 35.5663 33.8876C35.2838 33.605 34.9005 33.4463 34.501 33.4463C34.1014 33.4463 33.7182 33.605 33.4357 33.8876C33.1531 34.1701 32.9944 34.5533 32.9944 34.9529V36.4595H31.4878C31.0882 36.4595 30.705 36.6182 30.4225 36.9007C30.1399 37.1833 29.9812 37.5665 29.9812 37.9661C29.9812 38.3656 30.1399 38.7488 30.4225 39.0314C30.705 39.3139 31.0882 39.4727 31.4878 39.4727H32.9944V40.9792C32.9944 41.3788 33.1531 41.762 33.4357 42.0446C33.7182 42.3271 34.1014 42.4858 34.501 42.4858C34.9005 42.4858 35.2838 42.3271 35.5663 42.0446C35.8488 41.762 36.0076 41.3788 36.0076 40.9792V39.4727H37.5142C37.9137 39.4727 38.2969 39.3139 38.5795 39.0314C38.862 38.7488 39.0207 38.3656 39.0207 37.9661C39.0207 37.5665 38.862 37.1833 38.5795 36.9007C38.2969 36.6182 37.9137 36.4595 37.5142 36.4595ZM56.2411 39.6986L56.1507 39.5329C56.1247 39.4584 56.0893 39.3875 56.0452 39.322L52.4294 34.5009C52.0084 33.9396 51.4625 33.484 50.8349 33.1702C50.2073 32.8564 49.5153 32.693 48.8136 32.693H45.8004V31.1864C45.8004 29.9877 45.3242 28.8381 44.4766 27.9904C43.629 27.1428 42.4794 26.6666 41.2806 26.6666H27.7213C26.5226 26.6666 25.373 27.1428 24.5253 27.9904C23.6777 28.8381 23.2015 29.9877 23.2015 31.1864V47.7589C23.2015 48.1585 23.3603 48.5417 23.6428 48.8242C23.9253 49.1068 24.3086 49.2655 24.7081 49.2655H26.2147C26.2147 50.4642 26.6909 51.6138 27.5385 52.4615C28.3862 53.3091 29.5358 53.7853 30.7345 53.7853C31.9332 53.7853 33.0828 53.3091 33.9305 52.4615C34.7781 51.6138 35.2543 50.4642 35.2543 49.2655H44.2938C44.2938 50.4642 44.77 51.6138 45.6176 52.4615C46.4653 53.3091 47.6149 53.7853 48.8136 53.7853C50.0123 53.7853 51.1619 53.3091 52.0096 52.4615C52.8572 51.6138 53.3334 50.4642 53.3334 49.2655H54.84C55.2395 49.2655 55.6227 49.1068 55.9053 48.8242C56.1878 48.5417 56.3465 48.1585 56.3465 47.7589V40.2259C56.3433 40.0453 56.3076 39.8667 56.2411 39.6986ZM30.7345 50.7721C30.4365 50.7721 30.1452 50.6837 29.8975 50.5182C29.6497 50.3526 29.4566 50.1173 29.3426 49.842C29.2286 49.5667 29.1987 49.2638 29.2569 48.9716C29.315 48.6793 29.4585 48.4109 29.6692 48.2002C29.8799 47.9895 30.1483 47.846 30.4406 47.7879C30.7328 47.7297 31.0357 47.7596 31.311 47.8736C31.5863 47.9876 31.8216 48.1807 31.9872 48.4285C32.1527 48.6762 32.2411 48.9675 32.2411 49.2655C32.2411 49.6651 32.0824 50.0483 31.7998 50.3308C31.5173 50.6134 31.1341 50.7721 30.7345 50.7721ZM42.7872 46.2523H34.0791C33.6555 45.7862 33.1391 45.4139 32.5632 45.159C31.9872 44.9042 31.3643 44.7726 30.7345 44.7726C30.1047 44.7726 29.4818 44.9042 28.9058 45.159C28.3298 45.4139 27.8135 45.7862 27.3899 46.2523H26.2147V31.1864C26.2147 30.7868 26.3735 30.4036 26.656 30.1211C26.9385 29.8385 27.3217 29.6798 27.7213 29.6798H41.2806C41.6802 29.6798 42.0634 29.8385 42.346 30.1211C42.6285 30.4036 42.7872 30.7868 42.7872 31.1864V46.2523ZM45.8004 35.7062H48.8136C49.0475 35.7062 49.2782 35.7606 49.4874 35.8652C49.6966 35.9698 49.8785 36.1217 50.0189 36.3088L51.8268 38.7194H45.8004V35.7062ZM48.8136 50.7721C48.5156 50.7721 48.2243 50.6837 47.9766 50.5182C47.7288 50.3526 47.5357 50.1173 47.4217 49.842C47.3077 49.5667 47.2778 49.2638 47.3359 48.9716C47.3941 48.6793 47.5376 48.4109 47.7483 48.2002C47.959 47.9895 48.2274 47.846 48.5197 47.7879C48.8119 47.7297 49.1148 47.7596 49.3901 47.8736C49.6654 47.9876 49.9007 48.1807 50.0663 48.4285C50.2318 48.6762 50.3202 48.9675 50.3202 49.2655C50.3202 49.6651 50.1615 50.0483 49.8789 50.3308C49.5964 50.6134 49.2132 50.7721 48.8136 50.7721ZM53.3334 46.2523H52.1582C51.3565 45.3695 50.2385 44.8393 49.0476 44.7772C47.8567 44.7152 46.6896 45.1262 45.8004 45.9209V41.7325H53.3334V46.2523Z" fill="black"/>
</svg>
