<svg width="68" height="56" viewBox="0 0 68 56" fill="none" xmlns="http://www.w3.org/2000/svg">
<path d="M60.4163 13.9439C60.4433 14.5599 60.4433 15.1479 60.4433 15.7639C60.4703 34.4399 46.749 56 21.6562 56C14.2553 56 6.98944 53.788 0.75 49.644C1.83042 49.784 2.91084 49.84 3.99127 49.84C10.1227 49.84 16.092 47.712 20.9269 43.764C15.0926 43.652 9.9606 39.7039 8.1779 33.9359C10.2307 34.3559 12.3375 34.2719 14.3363 33.6839C7.98883 32.3959 3.42405 26.5999 3.39703 19.8519C3.39703 19.7959 3.39703 19.7399 3.39703 19.6839C5.28777 20.7759 7.42161 21.3919 9.58245 21.4479C3.61312 17.3039 1.74939 9.04385 5.36881 2.57583C12.3105 11.4239 22.5205 16.7719 33.4868 17.3599C32.3794 12.4599 33.892 7.30784 37.4303 3.83583C42.9135 -1.51218 51.5569 -1.23218 56.7429 4.45183C59.7951 3.83583 62.7392 2.65983 65.4133 1.00782C64.3869 4.28383 62.253 7.05584 59.4169 8.81985C62.118 8.48385 64.765 7.72785 67.25 6.60784C65.4133 9.46385 63.0904 11.9279 60.4163 13.9439Z" fill="#1D9BF0"/>
</svg>
